PathFileType	4	(X/Y/Z)	D:\TRACE\v60_Jaco2_6-2-23\JustBodyDRS_Motion3_3-v60.trc
DataRate	CameraRate	NumFrames	NumMarkers	Units	OrigDataRate	OrigDataStartFrame	OrigNumFrames
100.00	100.00	      20	9	mm	100.00	4376	      7000
Frame#	Time	front left toe			Front right toe			aft left toe			aft right toe			Arm			FL body			FR body			AL Body			AR Body			
		X1	Y1	Z1	X2	Y2	Z2	X3	Y3	Z3	X4	Y4	Z4	X5	Y5	Z5	X6	Y6	Z6	X7	Y7	Z7	X8	Y8	Z8	X9	Y9	Z9	

4376	43.750	-160.92702	121.90597	-172.82928	210.25774	-7.02859	-168.60629	-150.62325	70.95779	464.91309	236.79356	196.35278	432.16266	28.50733	1180.31531	-255.93153	-60.76220	540.91211	-309.57794	97.51815	539.75366	-314.48376	-22.41830	616.82629	631.83649	130.22157	604.83411	625.70715	
4377	43.760	-158.93068	116.01084	-174.47260	210.45280	-7.23991	-168.91727	-150.94502	71.62745	464.48022	239.06770	191.27463	430.73044	28.93308	1180.06677	-257.69141	-60.12873	540.35791	-310.86206	99.07993	538.95984	-315.67896	-22.12574	617.45013	630.61096	130.62772	605.60181	624.27722	
4378	43.770	-156.40161	109.80830	-176.18185	210.57341	-7.53834	-169.23956	-150.91374	71.93531	464.34698	241.13167	185.51141	429.08719	29.58004	1179.82117	-259.38553	-59.22670	539.52264	-311.83405	99.80202	538.63666	-317.18707	-21.56616	617.71143	629.11487	131.38995	606.56281	623.77020	
4379	43.780	-154.36688	103.37314	-178.30753	211.12698	-7.73032	-169.46910	-150.29082	72.09805	464.40247	242.56139	178.57301	426.72177	29.85063	1179.40430	-261.32071	-58.67282	539.31000	-313.54288	100.05956	538.29645	-318.64151	-20.75718	618.17047	627.72662	132.07137	607.05170	622.19470	
4380	43.790	-153.64040	97.05805	-180.67529	211.51927	-8.07880	-169.69310	-149.93398	72.25233	464.19247	244.43359	170.87971	424.46823	29.75729	1179.02234	-263.53357	-57.84433	538.80255	-314.76202	101.13533	538.04584	-319.83194	-20.21264	618.70313	626.33118	132.71696	607.88763	620.94720	
4381	43.800	-152.57176	89.31816	-182.49794	211.76396	-8.36589	-169.76154	-149.58012	72.34319	464.03226	246.95491	162.40369	421.91553	29.51405	1178.59473	-265.72806	-56.93064	538.35907	-315.83307	101.26684	537.88196	-321.05029	-19.14426	619.27911	625.01404	133.57434	608.35931	619.50293	
4382	43.810	-152.60692	81.89428	-184.93593	211.88953	-8.52613	-169.85429	-149.28285	72.45215	463.93286	248.93944	153.78230	418.43338	29.03378	1178.40308	-268.01425	-56.22179	538.12415	-317.71323	101.99509	537.74481	-322.45676	-18.86774	619.68463	623.37671	134.04094	608.90088	617.95306	
4383	43.820	-152.59058	73.79770	-187.20999	211.95636	-8.69255	-169.94652	-148.87094	72.70104	463.72964	250.70630	144.98412	415.16022	29.30379	1177.97473	-270.05255	-55.26915	537.54730	-318.98709	103.06246	537.15149	-323.46170	-17.87444	620.26215	621.96649	134.74130	609.52191	616.59271	
4384	43.830	-151.93970	65.27570	-189.02573	212.33006	-8.85637	-170.17366	-149.70624	73.92773	463.05621	252.44110	136.06529	412.54175	29.55033	1177.67859	-271.99792	-54.51367	537.15955	-320.19614	103.87194	536.85468	-325.29697	-17.21134	620.60138	620.25861	135.35179	610.10925	614.90558	
4385	43.840	-151.22597	56.78252	-190.92853	212.74286	-8.91401	-170.20494	-149.53276	74.26944	462.74832	253.86780	127.03033	410.44815	30.05374	1177.60022	-273.90140	-54.09685	536.90662	-321.91937	104.94637	536.55444	-327.07703	-16.45975	620.85071	618.80878	135.24968	610.98407	613.59503	
4386	43.850	-150.03786	47.99273	-192.31175	213.22307	-9.12447	-170.24701	-148.97141	74.16452	462.76410	254.39870	117.79253	408.62231	30.77046	1177.36377	-275.54581	-53.25042	536.68311	-323.30084	105.72395	536.49597	-328.44611	-15.34492	621.16315	617.48901	137.08176	610.91467	611.94751	
4387	43.860	-149.22035	39.22397	-193.51433	213.68619	-9.21185	-170.19553	-148.74101	74.38152	462.75986	255.24420	109.16948	406.79858	31.45974	1177.33496	-277.08893	-52.68267	536.39636	-324.55792	106.05501	536.40289	-330.08066	-15.22066	621.28064	615.82843	137.92329	611.14917	610.34760	
4388	43.870	-149.38637	31.34839	-194.88855	213.89987	-9.39432	-170.52480	-148.09413	74.28979	462.63025	255.31398	100.70842	405.04321	31.60870	1177.08777	-278.90060	-51.91975	535.98486	-326.10593	106.82698	536.15979	-331.44855	-14.14974	621.41901	614.32843	139.56906	611.19568	609.03302	
4389	43.880	-149.76385	24.09656	-195.82779	214.13507	-9.68530	-171.00664	-148.05168	74.41949	462.49136	255.38417	93.54852	403.62314	31.53390	1176.79211	-280.63940	-51.13522	535.69452	-327.65869	107.59856	536.04706	-332.93573	-13.34355	621.41461	612.86969	139.16370	611.47858	607.40735	
4390	43.890	-150.07347	17.77020	-196.82214	214.19545	-9.82927	-171.11694	-148.03510	74.72334	462.43933	255.12477	87.17484	402.56897	31.58697	1176.44519	-282.37845	-50.50727	535.48657	-328.83377	108.10697	535.79108	-334.30057	-12.76125	621.41986	611.31030	139.80553	611.59961	605.88519	
4391	43.900	-150.80414	11.72787	-197.83366	214.25380	-10.12902	-171.23492	-147.69917	74.95543	462.33829	254.38445	80.80406	401.40900	31.84426	1176.24500	-284.00360	-49.91210	535.29456	-330.15738	109.08600	535.56525	-335.71759	-12.01248	621.59277	610.17676	140.67320	611.69104	604.43762	
4392	43.910	-151.29921	5.82975	-198.87645	214.57246	-10.29771	-171.27390	-147.34822	75.06963	462.20996	254.01852	74.45859	400.39301	32.43071	1176.13965	-285.62604	-49.40464	535.32306	-331.92792	108.59447	535.47943	-336.64182	-11.34663	621.80963	608.77484	141.08575	611.87115	603.14276	
4393	43.920	-151.95313	-0.81168	-199.57045	214.88818	-10.34326	-171.25807	-146.99641	75.17461	462.11374	254.00067	67.43881	399.52261	33.10602	1176.04578	-287.24765	-48.87706	535.00403	-332.87180	110.17680	535.14832	-338.39331	-10.83682	622.13629	607.31122	141.82959	611.99530	601.43878	
4394	43.930	-152.19119	-7.68474	-199.97902	215.43480	-10.38446	-171.22084	-146.85503	75.35194	461.72577	254.59933	67.50175	397.06766	34.32066	1175.77942	-288.79080	-48.22178	534.77008	-334.17099	109.94141	534.98956	-339.24582	-10.39661	622.69434	606.01465	142.66600	612.65192	600.53564	
4395	43.940	-152.12616	-13.15393	-200.74823	215.63876	-10.53950	-171.19377	-147.20616	76.19537	461.09390	255.42111	64.76444	397.63510	35.51977	1175.56519	-290.25070	-47.76890	534.38379	-335.48050	111.49576	534.61548	-340.55099	-10.07833	623.63306	604.85358	142.07054	613.97101	599.33783	
